<?xml version="1.0" encoding="UTF-8"?>
<svg id="Layer_2" data-name="Layer 2" xmlns="http://www.w3.org/2000/svg" viewBox="0 0 161.28 217.03">
    <defs>
        <style>
            .cls-1 {
            fill: #ed8223;
            }
        </style>
    </defs>
    <!--  <g id="Layer_1-2" data-name="Layer 1">-->
    <g id="Layer_1-2">
        <g>
            <g>
                <path class="cls-1"
                      d="m6.28,90.96c.18,2.36-2.93-34.64,22.83-55.34,22.62-18.17,49.1-12.86,52.57-12.1V0S-.63-.16,6.28,90.96Z"/>
                <path class="cls-1"
                      d="m57.31,149.08c-2.32-.45,34.07,6.91,57.6-16.28,20.66-20.37,18.45-47.29,18.09-50.82h23.36s-9.35,84.49-99.06,67.1Z"/>
                <path class="cls-1"
                      d="m86.14,28.98v12.03c15.92,5.73,27.97,19.55,31.18,36.5h11.62c-3.55-23.31-20.53-42.2-42.8-48.53Zm43.32,52.99h-11.5c.15,1.52.22,3.07.22,4.64,0,26.75-21.69,48.44-48.44,48.44s-48.45-21.69-48.45-48.44,21.69-48.45,48.45-48.45c4.12,0,8.12.51,11.94,1.48v-11.73c-3.86-.79-7.85-1.2-11.94-1.2-33.08,0-59.9,26.82-59.9,59.9s26.82,59.89,59.9,59.89,59.89-26.82,59.89-59.89c0-1.56-.06-3.11-.17-4.64Z"/>
            </g>
            <g>
                <path class="cls-1"
                      d="m90.45,202.19c-1.86.83-3.29,2.46-3.84,4.46-.55-2-1.98-3.62-3.84-4.46,1.86-.84,3.29-2.46,3.84-4.46.55,1.99,1.98,3.62,3.84,4.46Z"/>
                <g>
                    <path class="cls-1"
                          d="m10.81,208.32h2.4c.43,0,.82.05,1.18.14.35.09.65.23.91.42.25.19.45.42.58.71.14.28.2.62.2,1s-.07.72-.21,1c-.14.28-.34.52-.59.71-.25.19-.56.33-.91.43-.36.1-.75.14-1.18.14h-1.51v3.95h-.86v-8.5Zm.86,3.82h1.46c.68,0,1.2-.13,1.55-.4.35-.26.53-.65.53-1.15s-.18-.91-.55-1.16c-.36-.24-.87-.37-1.53-.37h-1.46v3.07Z"/>
                    <path class="cls-1"
                          d="m24.17,216.81h-.95l3.67-8.5h.84l3.65,8.5h-.96l-.94-2.23h-4.39l-.92,2.23Zm1.25-3.02h3.74l-1.87-4.51-1.87,4.51Z"/>
                    <path class="cls-1"
                          d="m43.92,209.68c-.18-.26-.42-.46-.71-.62s-.64-.23-1.04-.23c-.21,0-.42.03-.64.1-.22.06-.41.16-.59.29-.18.13-.32.3-.43.5-.11.2-.16.44-.16.71s.05.5.16.67.24.33.41.45c.17.12.37.23.59.31.22.08.45.16.69.24.29.1.59.2.89.31.3.11.57.26.81.44.24.18.44.41.59.68.15.28.23.63.23,1.05s-.08.79-.24,1.1c-.16.31-.37.56-.63.76-.26.2-.55.35-.89.44-.33.1-.67.14-1,.14-.26,0-.51-.03-.77-.08-.26-.05-.5-.13-.73-.23-.23-.1-.45-.24-.65-.4-.2-.16-.38-.34-.53-.55l.74-.55c.18.3.44.56.77.76.33.2.72.31,1.17.31.22,0,.44-.03.66-.1.22-.07.43-.17.61-.31.18-.14.33-.31.44-.52.12-.2.17-.44.17-.71,0-.3-.06-.54-.17-.74-.12-.2-.27-.36-.46-.49-.19-.13-.41-.24-.66-.33-.25-.09-.51-.18-.78-.26-.28-.09-.56-.19-.83-.3s-.52-.26-.73-.44c-.22-.18-.39-.4-.52-.67-.13-.26-.2-.59-.2-.97,0-.41.08-.76.25-1.06s.38-.54.64-.73c.26-.19.56-.33.88-.42.32-.09.64-.13.95-.13.58,0,1.07.1,1.48.31.41.2.72.45.92.73l-.68.55Z"/>
                    <path class="cls-1" d="m56.25,216.81h-.86v-7.73h-2.84v-.77h6.55v.77h-2.84v7.73Z"/>
                    <path class="cls-1"
                          d="m78.3,216.81h-.86v-8.5h2.5c.42,0,.8.04,1.16.12.36.08.66.21.92.39.26.18.46.41.61.7.14.29.22.64.22,1.06,0,.31-.06.6-.17.85-.11.26-.26.48-.46.67-.19.19-.42.34-.68.45-.26.11-.55.18-.86.22l2.48,4.04h-1.06l-2.35-3.97h-1.44v3.97Zm0-4.72h1.5c.7,0,1.23-.13,1.61-.38s.56-.63.56-1.13c0-.28-.05-.52-.16-.71-.1-.19-.25-.35-.43-.47-.18-.12-.41-.21-.67-.26-.26-.06-.56-.08-.88-.08h-1.54v3.04Z"/>
                    <path class="cls-1" d="m92.66,216.04h4.55v.77h-5.41v-8.5h5.27v.77h-4.4v2.92h4.12v.77h-4.12v3.28Z"/>
                    <path class="cls-1"
                          d="m113.23,215.43c-.14.22-.32.42-.52.61s-.44.36-.71.51c-.27.15-.56.26-.89.35s-.68.13-1.06.13c-.64,0-1.23-.11-1.78-.34s-1.01-.53-1.4-.93c-.39-.4-.7-.87-.92-1.41s-.33-1.14-.33-1.79.11-1.24.34-1.79.53-1.01.93-1.41.86-.71,1.4-.93,1.13-.34,1.76-.34c.31,0,.62.03.92.1.3.06.58.16.85.27.26.12.5.26.72.42s.4.35.54.56l-.72.53c-.09-.14-.21-.27-.35-.41-.15-.14-.32-.26-.52-.36-.2-.1-.42-.19-.65-.25-.24-.06-.49-.1-.76-.1-.55,0-1.05.1-1.48.3-.44.2-.81.47-1.11.81-.3.34-.54.73-.7,1.18s-.24.92-.24,1.41.08.96.25,1.41c.16.45.4.84.7,1.18.3.34.67.61,1.11.81.44.2.93.3,1.47.3.49,0,.95-.1,1.39-.3.44-.2.81-.52,1.1-.96l.67.43Z"/>
                    <path class="cls-1"
                          d="m130.15,212.56c0,.65-.11,1.24-.34,1.79-.22.54-.53,1.01-.93,1.41s-.86.71-1.4.93-1.13.34-1.76.34-1.22-.11-1.76-.34-1.01-.53-1.4-.93-.71-.87-.93-1.41-.34-1.14-.34-1.79.11-1.24.34-1.79.53-1.01.93-1.41.86-.71,1.4-.93,1.13-.34,1.76-.34,1.22.11,1.76.34,1.01.53,1.4.93.71.87.93,1.41c.22.54.34,1.14.34,1.79Zm-.91,0c0-.5-.08-.97-.24-1.41s-.39-.84-.7-1.18c-.3-.34-.67-.61-1.11-.81-.44-.2-.93-.3-1.47-.3s-1.03.1-1.47.3c-.44.2-.81.47-1.11.81-.3.34-.54.73-.7,1.18s-.24.92-.24,1.41.08.97.24,1.41.39.84.7,1.17c.3.34.67.6,1.11.8.44.2.93.3,1.47.3s1.03-.1,1.47-.3c.44-.2.81-.47,1.11-.8.3-.33.54-.73.7-1.17s.24-.92.24-1.41Z"/>
                    <path class="cls-1"
                          d="m139.99,216.81h-.86v-8.5h2.5c.42,0,.8.04,1.16.12.36.08.66.21.92.39.26.18.46.41.61.7.14.29.22.64.22,1.06,0,.31-.06.6-.17.85-.11.26-.26.48-.46.67-.19.19-.42.34-.68.45-.26.11-.55.18-.86.22l2.48,4.04h-1.06l-2.35-3.97h-1.44v3.97Zm0-4.72h1.5c.7,0,1.23-.13,1.61-.38s.56-.63.56-1.13c0-.28-.05-.52-.16-.71-.1-.19-.25-.35-.43-.47-.18-.12-.41-.21-.67-.26-.26-.06-.56-.08-.88-.08h-1.54v3.04Z"/>
                    <path class="cls-1"
                          d="m153.49,208.32h2.82c.53,0,1.06.09,1.59.26.53.18,1.01.44,1.44.8.43.36.77.8,1.04,1.33.26.53.4,1.15.4,1.85s-.13,1.33-.4,1.86c-.26.53-.61.97-1.04,1.33-.43.36-.91.62-1.44.8s-1.06.26-1.59.26h-2.82v-8.5Zm.86,7.73h1.72c.64,0,1.2-.1,1.67-.3.48-.2.87-.46,1.18-.79.31-.32.55-.69.7-1.11.16-.42.23-.84.23-1.28s-.08-.87-.23-1.28c-.16-.42-.39-.79-.7-1.11-.31-.32-.71-.59-1.18-.79s-1.03-.3-1.67-.3h-1.72v6.96Z"/>
                </g>
                <g>
                    <path class="cls-1"
                          d="m28.81,158.67l-13.93,35.52h-1.65L.25,163.23c-.15-.4-.25-.85-.25-1.25,0-1.75,1.4-3.31,3.31-3.31h1.8l11.12,26.4,10.12-26.4h2.45Z"/>
                    <path class="cls-1"
                          d="m50.49,182.47c0,7.21-6.06,11.77-12.88,11.77-7.16,0-11.82-5.86-11.82-12.67,0-7.21,6.11-11.77,12.93-11.77,7.31,0,11.77,5.71,11.77,12.68Zm-5.46,1.95c0-4.66-2.35-13.23-7.87-13.23-4.41,0-5.81,4.71-5.81,8.37,0,4.71,2.2,13.28,7.82,13.28,4.41,0,5.86-4.76,5.86-8.42Z"/>
                    <path class="cls-1"
                          d="m68.54,189.78l-.25,2.76c-.05.65-.55,1.2-1.2,1.2h-17.48v-1.65l10.52-16.88c.2-.3.3-.65.3-.95,0-.95-.75-1.8-1.8-1.8h-7.97v-2.15h17.69v1.65l-10.37,16.78c-.2.3-.3.65-.3.95,0,.9.8,1.75,1.8,1.8l3.21-.1c2.35-.05,3.96-.65,4.56-1.6h1.3Z"/>
                    <path class="cls-1"
                          d="m92.3,189.78c-.1.45-.3,1.55-.4,2.05-.05.55-.25,1.45-.35,1.9h-21.19v-35.07h20.14c.1,1.45.3,2.96.55,4.41h-1.5l-.2-.8c-.5-1.4-2.1-2.35-4.06-2.35h-4.71c-2.25,0-4.16,1.85-4.16,4.11v10.97h11.37v1.25h-7.21c-2.25,0-4.16,1.85-4.16,4.16v12.07h8.87c2.66,0,4.76-.8,5.31-2l.25-.7h1.45Z"/>
                    <path class="cls-1"
                          d="m97.48,180.91c.05,6.61,2.81,11.32,6.86,11.32,2.91,0,4.91-1.85,6.26-4.66.15-.4.5-.6.9-.6h.05c.55,0,.9.45.95.95-.05.1-.1.3-.15.45-1.8,3.46-5.21,5.81-8.57,5.81-7.06,0-11.77-4.61-11.77-11.52,0-7.67,5.01-12.83,12.52-12.83,3.81,0,7.06,2,8.17,5.06.1.25.15.55.15.8,0,1.2-1,1.95-2.71,1.95-1.1,0-2.1-.95-2.66-2.4-.9-2.5-2.1-4.21-3.01-4.21-4.16,0-6.96,4.06-7.01,9.87Z"/>
                    <path class="cls-1"
                          d="m134.8,178.86v14.88h-2c-1.8,0-3.26-1.45-3.26-3.26v-11.62c0-2.96-1.3-4.96-3.61-5.01h-.1c-3.26.1-5.91,2.81-5.91,6.06v13.83h-5.26v-31.41c0-1.8,1.45-3.26,3.26-3.26h2v10.27c0,1.3,1.05,2.25,2.25,2.25.35,0,.75-.1,1.15-.3,1.55-.95,3.31-1.45,5.01-1.45,4.26,0,6.46,3.61,6.46,9.02Z"/>
                    <path class="cls-1"
                          d="m161.28,182.47c0,7.21-6.06,11.77-12.88,11.77-7.16,0-11.82-5.86-11.82-12.67,0-7.21,6.11-11.77,12.93-11.77,7.31,0,11.77,5.71,11.77,12.68Zm-5.46,1.95c0-4.66-2.35-13.23-7.87-13.23-4.41,0-5.81,4.71-5.81,8.37,0,4.71,2.2,13.28,7.82,13.28,4.41,0,5.86-4.76,5.86-8.42Z"/>
                </g>
            </g>
        </g>
    </g>
</svg>
